<?xml version="1.0" standalone="no"?>
<!DOCTYPE svg PUBLIC "-//W3C//DTD SVG 20010904//EN"
 "http://www.w3.org/TR/2001/REC-SVG-20010904/DTD/svg10.dtd">
<svg version="1.0" xmlns="http://www.w3.org/2000/svg"
 width="1200.000000pt" height="1200.000000pt" viewBox="0 0 1200.000000 1200.000000"
 preserveAspectRatio="xMidYMid meet">
<metadata>
Created by potrace 1.14, written by Peter Selinger 2001-2017
</metadata>
<g transform="translate(0.000000,1200.000000) scale(0.100000,-0.100000)"
fill="#000000" stroke="none">
<path d="M0 6000 l0 -6000 6000 0 6000 0 0 6000 0 6000 -6000 0 -6000 0 0
-6000z m7575 1200 l0 -1575 -1575 0 -1575 0 -3 1565 c-1 861 0 1571 3 1578 3
10 324 12 1577 10 l1573 -3 0 -1575z m-2930 -2737 l-1 -48 -167 -3 -167 -2 0
-160 0 -160 150 0 150 0 0 -50 0 -50 -150 0 -150 0 0 -215 0 -215 -60 0 -60 0
0 475 0 475 228 0 228 0 -1 -47z m775 -3 l0 -50 -109 0 c-119 0 -148 -7 -180
-41 -20 -22 -21 -32 -21 -336 0 -302 1 -314 20 -333 33 -33 65 -40 181 -40
l109 0 0 -51 0 -51 -142 4 c-166 4 -208 19 -255 90 l-28 41 -3 331 c-3 328 -2
331 20 375 45 87 103 110 281 111 l127 0 0 -50z m652 -372 l3 -423 73 -3 72
-3 0 -49 0 -50 -220 0 -220 0 0 50 0 50 90 0 90 0 0 366 0 365 -22 -7 c-13 -4
-56 -19 -95 -34 l-73 -28 0 56 0 57 83 37 c67 29 95 36 149 37 l68 1 2 -422z
m898 372 l0 -50 -99 0 c-109 0 -138 -7 -170 -41 -18 -20 -21 -35 -21 -116 l0
-93 93 0 c111 0 157 -12 202 -51 50 -44 60 -84 60 -244 0 -129 -2 -144 -25
-190 -16 -32 -41 -61 -68 -80 -38 -26 -54 -30 -124 -34 -98 -4 -152 14 -202
69 -19 21 -40 57 -46 80 -7 27 -10 146 -8 348 3 305 3 307 28 350 24 43 67 77
118 92 15 5 80 9 145 9 l117 1 0 -50z m710 18 c28 -16 55 -43 70 -70 23 -39
25 -53 25 -168 0 -96 -4 -136 -18 -172 -10 -25 -74 -127 -143 -225 l-124 -178
160 -3 160 -2 0 -50 0 -50 -225 0 -225 0 0 58 0 58 131 190 c72 104 140 207
150 229 14 31 19 64 19 142 0 99 -1 104 -29 135 -29 32 -30 32 -135 36 l-106
4 0 50 0 50 123 -3 c111 -4 126 -6 167 -31z"/>
<path d="M4500 7200 l0 -1500 1500 0 1500 0 0 1500 0 1500 -1500 0 -1500 0 0
-1500z m1085 896 c73 -33 145 -103 180 -173 23 -47 29 -75 33 -146 5 -98 -1
-113 -41 -98 -19 7 -24 15 -20 30 5 20 1 21 -73 21 -55 0 -106 8 -173 28 l-96
27 65 5 c69 5 66 2 62 65 -2 26 -2 26 -84 23 l-83 -3 0 -115 0 -115 36 -3 c27
-2 39 -9 48 -28 15 -35 16 -34 -30 -34 -45 0 -45 -5 -11 -78 20 -43 38 -50 66
-23 l22 21 13 -38 c8 -20 16 -43 19 -51 4 -11 -12 -13 -89 -9 -116 5 -184 34
-253 108 -123 131 -138 312 -39 458 98 145 291 200 448 128z m1185 -151 l24
-26 -732 -732 -732 -732 -27 28 -28 27 730 730 c402 402 733 730 736 730 3 0
16 -11 29 -25z m-1159 -285 c74 -22 140 -43 148 -45 11 -4 5 -14 -20 -35 l-34
-29 49 -44 49 -43 -30 -34 -30 -34 -43 37 c-24 20 -47 37 -52 37 -4 0 -18 -16
-30 -35 -13 -19 -25 -35 -28 -35 -3 0 -28 60 -57 133 -66 166 -66 167 -61 167
3 0 65 -18 139 -40z m1219 -805 l0 -35 -113 0 -112 0 0 -105 0 -105 96 0 97 0
4 -30 c3 -17 2 -32 0 -35 -3 -3 -49 -5 -101 -5 l-97 0 1 -140 1 -140 -43 0
-43 0 0 315 0 315 155 0 155 0 0 -35z"/>
<path d="M5416 8051 c-14 -15 -46 -82 -46 -96 0 -3 29 -5 65 -5 74 0 78 6 45
69 -23 46 -43 56 -64 32z"/>
<path d="M5303 8034 c-18 -9 -49 -31 -70 -50 l-38 -33 55 0 55 -1 16 50 c8 28
15 50 15 50 -1 0 -15 -8 -33 -16z"/>
<path d="M5540 8047 c0 -2 7 -24 16 -50 l16 -47 51 0 51 0 -27 28 c-25 26
-107 79 -107 69z"/>
<path d="M5150 7854 c-23 -59 -17 -65 63 -62 l72 3 3 43 3 42 -66 0 c-61 0
-66 -2 -75 -26z"/>
<path d="M5584 7864 c3 -9 6 -29 6 -45 l0 -29 75 0 c41 0 75 3 75 8 0 4 -5 24
-11 45 l-10 37 -71 0 c-60 0 -69 -2 -64 -16z"/>
<path d="M5140 7711 c0 -11 4 -31 10 -45 9 -24 14 -26 75 -26 l66 0 -3 43 -3
42 -72 3 c-67 3 -73 1 -73 -17z"/>
<path d="M5229 7546 c29 -30 91 -69 98 -62 1 1 -4 22 -11 46 l-13 45 -54 3
-54 3 34 -35z"/>
<path d="M6680 3891 c0 -168 1 -172 24 -196 46 -46 144 -45 187 1 23 24 24 34
27 163 3 135 3 139 -21 167 -24 28 -30 29 -121 32 l-96 4 0 -171z"/>
</g>
</svg>
